# Blender v2.78 (sub 0) OBJ File: ''
# www.blender.org
mtllib star.mtl
o greenstar_Circle_Circle.001
v 0.628768 -2.528054 -0.093925
v 0.629026 -0.842638 2.258220
v 0.642116 1.934211 -1.511429
v 0.629026 -0.842638 2.258220
v 0.617063 -4.925704 3.404017
v 0.617063 -4.925704 3.404017
v 0.649478 5.910975 -0.038424
v 0.637276 1.915196 1.382150
v 0.637276 1.915196 1.382150
v 0.617063 -4.925704 3.404017
v 0.628817 -4.879520 -3.623092
v 0.636858 -0.811869 -2.423693
v 0.636858 -0.811869 -2.423693
v 0.649478 5.910975 -0.038424
v 0.629834 1.743189 5.619464
v 0.628817 -4.879520 -3.623092
v 0.648850 1.817915 -5.750635
v 0.642116 1.934211 -1.511429
v 0.629834 1.743189 5.619464
v 0.628768 -2.528054 -0.093925
v 0.648850 1.817915 -5.750635
v 0.628817 -4.879520 -3.623092
v 0.636858 -0.811869 -2.423693
v -1.019361 -0.807787 -2.426435
v 0.649478 5.910975 -0.038424
v 0.629026 -0.842638 2.258220
v 0.642116 1.934211 -1.511429
v 0.629834 1.743189 5.619464
v 0.628768 -2.528054 -0.093925
v 0.648850 1.817915 -5.750635
v 0.637276 1.915196 1.382150
v -1.027192 -0.838553 2.255477
v -1.018944 1.919278 1.379406
v -1.006739 5.915057 -0.041168
v -1.027402 -4.875435 -3.625835
v -1.014103 1.938294 -1.514173
v -1.026385 1.747272 5.616721
v -1.027451 -2.523971 -0.096668
v -1.007369 1.821997 -5.753377
v -1.039154 -4.921620 3.401272
vn -1.0000 0.0025 -0.0017
vn 0.0000 0.0000 1.0000
vn -0.0023 -0.2828 0.9592
vn 1.0000 -0.0025 0.0017
vn -0.0024 -0.3473 0.9377
vn 0.0030 0.7926 -0.6097
vn 0.0030 0.8322 -0.5545
vn -0.0025 -0.9996 0.0274
vn -0.0024 -0.9992 -0.0406
vn 0.0011 0.8248 0.5654
vn 0.0009 0.7845 0.6201
vn 0.0007 -0.3350 -0.9422
vn 0.0009 -0.2702 -0.9628
usemtl None
s 1
f 1//1 2//1 3//1
f 4//2 5//2 6//2
f 7//2 8//2 9//2
f 2//2 10//2 5//2
f 11//2 12//2 13//2
f 3//2 7//2 14//2
f 15//2 2//2 4//2
f 1//2 11//2 16//2
f 17//2 3//2 18//2
f 8//2 15//2 19//2
f 10//2 1//2 20//2
f 12//2 17//2 21//2
f 22//3 23//3 24//3
f 16//2 13//2 23//2
f 18//2 14//2 25//2
f 19//2 4//2 26//2
f 20//2 16//2 22//2
f 21//2 18//2 27//2
f 9//2 19//2 28//2
f 5//2 20//2 29//2
f 13//2 21//2 30//2
f 14//2 9//2 31//2
f 32//4 24//4 33//4
f 27//5 25//5 34//5
f 28//6 26//6 32//6
f 29//7 22//7 35//7
f 30//8 27//8 36//8
f 31//9 28//9 37//9
f 6//10 29//10 38//10
f 23//11 30//11 39//11
f 25//12 31//12 33//12
f 26//13 6//13 40//13
f 1//1 12//1 11//1
f 12//1 3//1 17//1
f 3//1 8//1 7//1
f 8//1 2//1 15//1
f 2//1 1//1 10//1
f 1//1 3//1 12//1
f 3//1 2//1 8//1
f 4//2 6//2 26//2
f 7//2 9//2 14//2
f 2//2 5//2 4//2
f 11//2 13//2 16//2
f 3//2 14//2 18//2
f 15//2 4//2 19//2
f 1//2 16//2 20//2
f 17//2 18//2 21//2
f 8//2 19//2 9//2
f 10//2 20//2 5//2
f 12//2 21//2 13//2
f 22//3 24//3 35//3
f 16//2 23//2 22//2
f 18//2 25//2 27//2
f 19//2 26//2 28//2
f 20//2 22//2 29//2
f 21//2 27//2 30//2
f 9//2 28//2 31//2
f 5//2 29//2 6//2
f 13//2 30//2 23//2
f 14//2 31//2 25//2
f 38//4 32//4 40//4
f 32//4 33//4 37//4
f 33//4 36//4 34//4
f 36//4 24//4 39//4
f 24//4 38//4 35//4
f 38//4 24//4 32//4
f 33//4 24//4 36//4
f 27//5 34//5 36//5
f 28//6 32//6 37//6
f 29//7 35//7 38//7
f 30//8 36//8 39//8
f 31//9 37//9 33//9
f 6//10 38//10 40//10
f 23//11 39//11 24//11
f 25//12 33//12 34//12
f 26//13 40//13 32//13
