# Blender v2.78 (sub 0) OBJ File: ''
# www.blender.org
mtllib star.mtl
o greenstar_Circle_Circle.001
v 0.538725 -2.166022 -0.080474
v 0.538946 -0.721967 1.934830
v 0.550161 1.657221 -1.294984
v 0.538946 -0.721967 1.934830
v 0.528696 -4.220314 2.916543
v 0.528696 -4.220314 2.916543
v 0.556469 5.064490 -0.032922
v 0.546014 1.640929 1.184218
v 0.546014 1.640929 1.184218
v 0.528696 -4.220314 2.916543
v 0.538767 -4.180745 -3.104244
v 0.545656 -0.695605 -2.076606
v 0.545656 -0.695605 -2.076606
v 0.556469 5.064490 -0.032922
v 0.539638 1.493555 4.814724
v 0.538767 -4.180745 -3.104244
v 0.555931 1.557578 -4.927111
v 0.550161 1.657221 -1.294984
v 0.539638 1.493555 4.814724
v 0.538725 -2.166022 -0.080474
v 0.555931 1.557578 -4.927111
v 0.538767 -4.180745 -3.104244
v 0.545656 -0.695605 -2.076606
v -0.873383 -0.692108 -2.078956
v 0.556469 5.064490 -0.032922
v 0.538946 -0.721967 1.934830
v 0.550161 1.657221 -1.294984
v 0.539638 1.493555 4.814724
v 0.538725 -2.166022 -0.080474
v 0.555931 1.557578 -4.927111
v 0.546014 1.640929 1.184218
v -0.880092 -0.718467 1.932480
v -0.873025 1.644427 1.181867
v -0.862568 5.067987 -0.035273
v -0.880272 -4.177245 -3.106594
v -0.868878 1.660719 -1.297335
v -0.879401 1.497053 4.812374
v -0.880314 -2.162524 -0.082824
v -0.863108 1.561076 -4.929461
v -0.890341 -4.216816 2.914191
vn -1.0000 0.0025 -0.0017
vn 0.0000 0.0000 1.0000
vn -0.0023 -0.2828 0.9592
vn 1.0000 -0.0025 0.0017
vn -0.0024 -0.3473 0.9377
vn 0.0030 0.7926 -0.6097
vn 0.0030 0.8322 -0.5545
vn -0.0025 -0.9996 0.0274
vn -0.0024 -0.9992 -0.0406
vn 0.0011 0.8248 0.5654
vn 0.0009 0.7845 0.6201
vn 0.0007 -0.3350 -0.9422
vn 0.0009 -0.2702 -0.9628
usemtl None
s 1
f 1//1 2//1 3//1
f 4//2 5//2 6//2
f 7//2 8//2 9//2
f 2//2 10//2 5//2
f 11//2 12//2 13//2
f 3//2 7//2 14//2
f 15//2 2//2 4//2
f 1//2 11//2 16//2
f 17//2 3//2 18//2
f 8//2 15//2 19//2
f 10//2 1//2 20//2
f 12//2 17//2 21//2
f 22//3 23//3 24//3
f 16//2 13//2 23//2
f 18//2 14//2 25//2
f 19//2 4//2 26//2
f 20//2 16//2 22//2
f 21//2 18//2 27//2
f 9//2 19//2 28//2
f 5//2 20//2 29//2
f 13//2 21//2 30//2
f 14//2 9//2 31//2
f 32//4 24//4 33//4
f 27//5 25//5 34//5
f 28//6 26//6 32//6
f 29//7 22//7 35//7
f 30//8 27//8 36//8
f 31//9 28//9 37//9
f 6//10 29//10 38//10
f 23//11 30//11 39//11
f 25//12 31//12 33//12
f 26//13 6//13 40//13
f 1//1 12//1 11//1
f 12//1 3//1 17//1
f 3//1 8//1 7//1
f 8//1 2//1 15//1
f 2//1 1//1 10//1
f 1//1 3//1 12//1
f 3//1 2//1 8//1
f 4//2 6//2 26//2
f 7//2 9//2 14//2
f 2//2 5//2 4//2
f 11//2 13//2 16//2
f 3//2 14//2 18//2
f 15//2 4//2 19//2
f 1//2 16//2 20//2
f 17//2 18//2 21//2
f 8//2 19//2 9//2
f 10//2 20//2 5//2
f 12//2 21//2 13//2
f 22//3 24//3 35//3
f 16//2 23//2 22//2
f 18//2 25//2 27//2
f 19//2 26//2 28//2
f 20//2 22//2 29//2
f 21//2 27//2 30//2
f 9//2 28//2 31//2
f 5//2 29//2 6//2
f 13//2 30//2 23//2
f 14//2 31//2 25//2
f 38//4 32//4 40//4
f 32//4 33//4 37//4
f 33//4 36//4 34//4
f 36//4 24//4 39//4
f 24//4 38//4 35//4
f 38//4 24//4 32//4
f 33//4 24//4 36//4
f 27//5 34//5 36//5
f 28//6 32//6 37//6
f 29//7 35//7 38//7
f 30//8 36//8 39//8
f 31//9 37//9 33//9
f 6//10 38//10 40//10
f 23//11 39//11 24//11
f 25//12 33//12 34//12
f 26//13 40//13 32//13
