# Blender v2.78 (sub 0) OBJ File: ''
# www.blender.org
o greenstar_Circle_Circle.001
v 0.432200 -1.523124 -0.076426
v 0.432229 -2.923923 -2.178796
v 0.437019 -0.500771 -1.464299
v 0.444163 1.065825 -3.446202
v 0.440151 1.135105 -0.920852
v 0.444537 3.504116 -0.043365
v 0.437268 1.123778 0.802890
v 0.432835 1.021312 3.327113
v 0.432354 -0.519099 1.324777
v 0.425227 -2.951434 2.007344
v 0.425227 -2.951434 2.007344
v 0.432354 -0.519099 1.324777
v 0.432354 -0.519099 1.324777
v 0.425227 -2.951434 2.007344
v 0.444537 3.504116 -0.043365
v 0.437268 1.123778 0.802890
v 0.432229 -2.923923 -2.178796
v 0.437019 -0.500771 -1.464299
v 0.440151 1.135105 -0.920852
v 0.432835 1.021312 3.327113
v 0.432200 -1.523124 -0.076426
v 0.444163 1.065825 -3.446202
v 0.437019 -0.500771 -1.464299
v 0.432229 -2.923923 -2.178796
v -0.554402 -2.921490 -2.180430
v -0.549612 -0.498339 -1.465933
v 0.440151 1.135105 -0.920852
v 0.444537 3.504116 -0.043365
v 0.432835 1.021312 3.327113
v 0.432200 -1.523124 -0.076426
v 0.444163 1.065825 -3.446202
v 0.437268 1.123778 0.802890
v -0.554431 -1.520692 -0.078060
v -0.561403 -2.949002 2.005709
v -0.554277 -0.516666 1.323143
v -0.553796 1.023744 3.325479
v -0.549363 1.126210 0.801256
v -0.542093 3.506547 -0.044999
v -0.546480 1.137537 -0.922487
v -0.542468 1.068257 -3.447836
vn -1.0000 0.0025 -0.0017
vn 0.0000 0.0000 1.0000
vn -0.0023 -0.2828 0.9592
vn 1.0000 -0.0025 0.0017
vn -0.0024 -0.3473 0.9377
vn 0.0030 0.7926 -0.6097
vn 0.0030 0.8322 -0.5545
vn -0.0025 -0.9996 0.0274
vn -0.0024 -0.9992 -0.0406
vn 0.0011 0.8248 0.5654
vn 0.0009 0.7845 0.6201
vn 0.0007 -0.3350 -0.9422
vn 0.0009 -0.2702 -0.9628
s 1
f 1//1 9//1 5//1
f 12//2 11//2 14//2
f 6//2 7//2 16//2
f 9//2 10//2 11//2
f 2//2 3//2 18//2
f 5//2 6//2 15//2
f 8//2 9//2 12//2
f 1//2 2//2 17//2
f 4//2 5//2 19//2
f 7//2 8//2 20//2
f 10//2 1//2 21//2
f 3//2 4//2 22//2
f 24//3 23//3 26//3
f 17//2 18//2 23//2
f 19//2 15//2 28//2
f 20//2 12//2 13//2
f 21//2 17//2 24//2
f 22//2 19//2 27//2
f 16//2 20//2 29//2
f 11//2 21//2 30//2
f 18//2 22//2 31//2
f 15//2 16//2 32//2
f 35//4 26//4 37//4
f 27//5 28//5 38//5
f 29//6 13//6 35//6
f 30//7 24//7 25//7
f 31//8 27//8 39//8
f 32//9 29//9 36//9
f 14//10 30//10 33//10
f 23//11 31//11 40//11
f 28//12 32//12 37//12
f 13//13 14//13 34//13
f 1//1 3//1 2//1
f 3//1 5//1 4//1
f 5//1 7//1 6//1
f 7//1 9//1 8//1
f 9//1 1//1 10//1
f 1//1 5//1 3//1
f 5//1 9//1 7//1
f 12//2 14//2 13//2
f 6//2 16//2 15//2
f 9//2 11//2 12//2
f 2//2 18//2 17//2
f 5//2 15//2 19//2
f 8//2 12//2 20//2
f 1//2 17//2 21//2
f 4//2 19//2 22//2
f 7//2 20//2 16//2
f 10//2 21//2 11//2
f 3//2 22//2 18//2
f 24//3 26//3 25//3
f 17//2 23//2 24//2
f 19//2 28//2 27//2
f 20//2 13//2 29//2
f 21//2 24//2 30//2
f 22//2 27//2 31//2
f 16//2 29//2 32//2
f 11//2 30//2 14//2
f 18//2 31//2 23//2
f 15//2 32//2 28//2
f 33//4 35//4 34//4
f 35//4 37//4 36//4
f 37//4 39//4 38//4
f 39//4 26//4 40//4
f 26//4 33//4 25//4
f 33//4 26//4 35//4
f 37//4 26//4 39//4
f 27//5 38//5 39//5
f 29//6 35//6 36//6
f 30//7 25//7 33//7
f 31//8 39//8 40//8
f 32//9 36//9 37//9
f 14//10 33//10 34//10
f 23//11 40//11 26//11
f 28//12 37//12 38//12
f 13//13 34//13 35//13
