# Blender v2.78 (sub 0) OBJ File: ''
# www.blender.org
mtllib star.mtl
o Circle_Circle.001
v 0.143644 0.210376 -0.906492
v -0.098391 0.210376 -0.239625
v -0.807413 0.210376 -0.215509
v -0.247977 0.210376 0.220753
v -0.444142 0.210376 0.902525
v 0.143644 0.210376 0.505282
v 0.731429 0.210376 0.902525
v 0.535264 0.210376 0.220753
v 1.094700 0.210376 -0.215509
v 0.385678 0.210376 -0.239625
v 0.143644 0.210376 -0.906492
v -0.098391 0.210376 -0.239625
v -0.807413 0.210376 -0.215509
v -0.247977 0.210376 0.220753
v -0.444142 0.210376 0.902525
v 0.143644 0.210376 0.505282
v 0.731429 0.210376 0.902525
v 0.535264 0.210376 0.220753
v 1.094700 0.210376 -0.215509
v 0.385678 0.210376 -0.239625
v 0.143644 0.210376 -0.906492
v -0.098391 0.210376 -0.239625
v -0.807413 0.210376 -0.215509
v -0.247977 0.210376 0.220753
v -0.444142 0.210376 0.902525
v 0.143644 0.210376 0.505282
v 0.731429 0.210376 0.902525
v 0.535264 0.210376 0.220753
v 1.094700 0.210376 -0.215509
v 0.385678 0.210376 -0.239625
v 0.143644 0.487441 -0.906492
v -0.098391 0.487441 -0.239625
v -0.807413 0.487441 -0.215509
v -0.247977 0.487441 0.220753
v -0.444142 0.487441 0.902525
v 0.143644 0.487441 0.505282
v 0.731429 0.487441 0.902525
v 0.535264 0.487441 0.220753
v 1.094700 0.487441 -0.215509
v 0.385678 0.487441 -0.239625
vn 0.0000 -1.0000 0.0000
vn 0.0000 0.0000 1.0000
vn 0.9400 0.0000 -0.3412
vn 0.0000 1.0000 -0.0000
vn 0.9610 0.0000 -0.2765
vn -0.9610 0.0000 -0.2765
vn -0.9400 0.0000 -0.3412
vn 0.6149 0.0000 0.7886
vn 0.5599 0.0000 0.8285
vn -0.0340 0.0000 -0.9994
vn 0.0340 0.0000 -0.9994
vn -0.5599 0.0000 0.8285
vn -0.6149 0.0000 0.7886
usemtl None
s off
f 2//1 1//1 10//1 9//1 8//1 7//1 6//1 5//1 4//1 3//1
f 13//2 14//2 24//2 23//2
f 6//2 7//2 17//2 16//2
f 3//2 4//2 14//2 13//2
f 10//2 1//2 11//2 20//2
f 7//2 8//2 18//2 17//2
f 4//2 5//2 15//2 14//2
f 1//2 2//2 12//2 11//2
f 8//2 9//2 19//2 18//2
f 5//2 6//2 16//2 15//2
f 2//2 3//2 13//2 12//2
f 9//2 10//2 20//2 19//2
f 30//3 21//3 31//3 40//3
f 20//2 11//2 21//2 30//2
f 17//2 18//2 28//2 27//2
f 14//2 15//2 25//2 24//2
f 11//2 12//2 22//2 21//2
f 18//2 19//2 29//2 28//2
f 15//2 16//2 26//2 25//2
f 12//2 13//2 23//2 22//2
f 19//2 20//2 30//2 29//2
f 16//2 17//2 27//2 26//2
f 32//4 33//4 34//4 35//4 36//4 37//4 38//4 39//4 40//4 31//4
f 27//5 28//5 38//5 37//5
f 24//6 25//6 35//6 34//6
f 21//7 22//7 32//7 31//7
f 28//8 29//8 39//8 38//8
f 25//9 26//9 36//9 35//9
f 22//10 23//10 33//10 32//10
f 29//11 30//11 40//11 39//11
f 26//12 27//12 37//12 36//12
f 23//13 24//13 34//13 33//13
